<svg width="22" height="22" viewBox="0 0 22 22" fill="none" xmlns="http://www.w3.org/2000/svg">
<ellipse cx="9.16667" cy="16.0417" rx="6.41667" ry="3.20833" stroke="#828A89" stroke-width="1.5" stroke-linejoin="round"/>
<ellipse cx="9.16667" cy="6.41667" rx="3.66667" ry="3.66667" stroke="#828A89" stroke-width="1.5" stroke-linejoin="round"/>
<path fill-rule="evenodd" clip-rule="evenodd" d="M13.8315 9.3317C13.5159 9.83564 13.1209 10.2848 12.6641 10.6616C13.0059 10.7731 13.3709 10.8333 13.75 10.8333C15.683 10.8333 17.25 9.26633 17.25 7.33333C17.25 5.49435 15.8317 3.98662 14.0292 3.84431C14.3024 4.35957 14.496 4.92343 14.5938 5.51955C15.2767 5.83779 15.75 6.53029 15.75 7.33333C15.75 8.41061 14.8982 9.28895 13.8315 9.3317Z" fill="#828A89"/>
<path fill-rule="evenodd" clip-rule="evenodd" d="M16.914 17.7786C17.2392 17.2371 17.4167 16.6521 17.4167 16.0417C17.4167 16.0361 17.4167 16.0306 17.4167 16.0251C17.825 15.8482 18.1134 15.6582 18.2915 15.4827C18.4764 15.3006 18.5001 15.1802 18.5001 15.125C18.5001 15.0699 18.4764 14.9494 18.2915 14.7673C18.104 14.5825 17.7941 14.3816 17.3507 14.1969C17.1488 14.1127 16.9266 14.035 16.6867 13.9652C16.1428 13.2307 15.3191 12.59 14.2988 12.094C15.6806 12.148 16.9488 12.4044 17.9276 12.8122C18.4795 13.0422 18.9751 13.3351 19.3442 13.6987C19.7159 14.0649 20.0001 14.5473 20.0001 15.125C20.0001 15.7027 19.7159 16.1851 19.3442 16.5513C18.9751 16.9149 18.4795 17.2078 17.9276 17.4378C17.617 17.5672 17.2773 17.6813 16.914 17.7786Z" fill="#828A89"/>
</svg>
