<svg width="20" height="20" viewBox="0 0 20 20" fill="none" xmlns="http://www.w3.org/2000/svg">
<path d="M7 8C7 9.6115 8.30638 10.9179 9.91788 10.9179V10.9179C11.5294 10.9179 12.8358 9.6115 12.8358 8" stroke="white" stroke-width="1.3" stroke-linecap="round" stroke-linejoin="round"/>
<path d="M7.08203 5.8317V5.41486C7.08203 3.80336 8.38841 2.49698 9.99991 2.49698V2.49698C11.6114 2.49698 12.9178 3.80336 12.9178 5.41486V5.8317" stroke="white" stroke-width="1.3" stroke-linecap="round" stroke-linejoin="round"/>
<path fill-rule="evenodd" clip-rule="evenodd" d="M5.3851 5.8317C4.50464 5.8317 3.77595 6.51631 3.72103 7.39505L3.33837 13.5176C3.27377 14.5512 3.6393 15.5655 4.34837 16.3203C5.05744 17.0751 6.04697 17.5032 7.08258 17.5032H12.918C13.9537 17.5032 14.9432 17.0751 15.6523 16.3203C16.3614 15.5656 16.7269 14.5512 16.6623 13.5176L16.2796 7.39505C16.2247 6.5163 15.496 5.8317 14.6156 5.8317H5.3851Z" stroke="white" stroke-width="1.3" stroke-linecap="round" stroke-linejoin="round"/>
</svg>
