<svg width="20" height="20" viewBox="0 0 20 20" fill="none" xmlns="http://www.w3.org/2000/svg">
<path fill-rule="evenodd" clip-rule="evenodd" d="M14.9998 11.6667H4.99984V9.58334C4.99984 8.89334 4.43984 8.33334 3.74984 8.33334H2.9165C2.2265 8.33334 1.6665 8.89334 1.6665 9.58334V13.3333C1.6665 14.2542 2.41234 15 3.33317 15H16.6665C17.5873 15 18.3332 14.2542 18.3332 13.3333V9.58334C18.3332 8.89334 17.7732 8.33334 17.0832 8.33334H16.2498C15.5598 8.33334 14.9998 8.89334 14.9998 9.58334V11.6667Z" stroke="white" stroke-width="1.4" stroke-linecap="round" stroke-linejoin="round"/>
<path d="M4.16667 15V16.6667" stroke="white" stroke-width="1.4" stroke-linecap="round" stroke-linejoin="round"/>
<path d="M15.8332 15V16.6667" stroke="white" stroke-width="1.4" stroke-linecap="round" stroke-linejoin="round"/>
<path d="M3.33301 8.33334V6.66667C3.33301 5.28584 4.45217 4.16667 5.83301 4.16667H14.1663C15.5472 4.16667 16.6663 5.28584 16.6663 6.66667V8.33334" stroke="white" stroke-width="1.4" stroke-linecap="round" stroke-linejoin="round"/>
</svg>
