<svg width="160" height="142" viewBox="0 0 160 142" fill="none" xmlns="http://www.w3.org/2000/svg">
<path d="M61.8012 122.293H20.7157C20.0326 122.293 19.479 121.739 19.479 121.056V111.259C19.479 110.576 20.0326 110.022 20.7157 110.022H61.8012C62.4843 110.022 63.0379 110.576 63.0379 111.259V121.056C63.0379 121.739 62.4843 122.293 61.8012 122.293ZM21.9524 119.819H60.5645V112.496H21.9524V119.819Z" fill="#0C8A7B"/>
<path d="M27.8491 141.649H23.9509C23.5645 141.649 23.2002 141.469 22.966 141.161C22.7324 140.853 22.6557 140.453 22.7591 140.08L28.1529 120.723C28.3363 120.066 29.0188 119.681 29.6758 119.864C30.3342 120.048 30.7187 120.729 30.5352 121.388L25.5799 139.176H26.9103L32.0517 120.724C32.2351 120.066 32.9182 119.682 33.5753 119.865C34.2337 120.048 34.6181 120.73 34.4347 121.388L29.0409 140.745C28.8913 141.279 28.4046 141.649 27.8491 141.649Z" fill="#0C8A7B"/>
<path d="M58.5659 141.649H54.6684C54.1128 141.649 53.6262 141.279 53.4772 140.744L48.0834 121.388C47.98 121.015 48.0561 120.615 48.2897 120.307C48.5239 119.999 48.8875 119.818 49.2746 119.818H53.1695C53.7251 119.818 54.2117 120.189 54.3607 120.723L59.7571 140.08C59.8605 140.453 59.7844 140.852 59.5502 141.161C59.3173 141.468 58.953 141.649 58.5659 141.649ZM55.6078 139.176H56.9376L52.2308 122.293H50.903L55.6078 139.176Z" fill="#0C8A7B"/>
<path d="M43.2075 122.293H39.31C38.6269 122.293 38.0732 121.739 38.0732 121.056C38.0732 120.373 38.6269 119.819 39.31 119.819H43.2075C43.8906 119.819 44.4442 120.373 44.4442 121.056C44.4442 121.739 43.8906 122.293 43.2075 122.293Z" fill="#0C8A7B"/>
<path d="M55.323 117.236H27.1947C26.5116 117.236 25.958 116.682 25.958 115.999C25.958 115.316 26.5116 114.762 27.1947 114.762H55.323C56.0061 114.762 56.5597 115.316 56.5597 115.999C56.5597 116.682 56.0061 117.236 55.323 117.236Z" fill="#0C8A7B"/>
<path d="M47.1622 112.496H34.7807C34.1776 112.496 33.6617 112.061 33.5609 111.466L30.6626 94.3394C30.6021 93.9809 30.7023 93.6127 30.9372 93.3349C31.1727 93.0565 31.5181 92.8964 31.8818 92.8964H50.0604C50.4247 92.8964 50.7702 93.0565 51.005 93.3349C51.2399 93.6127 51.3407 93.9809 51.2795 94.3394L48.3813 111.466C48.2811 112.061 47.7652 112.496 47.1622 112.496ZM35.8255 110.022H46.1167L48.5966 95.3699H33.3462L35.8255 110.022Z" fill="#0C8A7B"/>
<path d="M40.9716 95.291C36.6343 95.291 33.2371 88.8388 33.2371 80.6014C33.2371 72.7225 39.8494 66.5025 40.1304 66.2416C40.6053 65.8018 41.3378 65.8018 41.8121 66.2416C42.0931 66.5025 48.7054 72.7225 48.7054 80.6014C48.7061 88.8381 45.3089 95.291 40.9716 95.291ZM40.9716 68.9303C39.2977 70.7851 35.7105 75.3715 35.7105 80.6007C35.7105 87.7998 38.4832 92.817 40.9716 92.817C43.46 92.817 46.2327 87.7998 46.2327 80.6007C46.2327 75.3722 42.6461 70.7864 40.9716 68.9303Z" fill="#0C8A7B"/>
<path d="M40.9715 94.742C40.2884 94.742 39.7347 94.1884 39.7347 93.5053V74.6527C39.7347 73.9696 40.2884 73.416 40.9715 73.416C41.6545 73.416 42.2082 73.9696 42.2082 74.6527V93.5053C42.2082 94.1884 41.6545 94.742 40.9715 94.742Z" fill="#0C8A7B"/>
<path d="M10.8369 118.724C10.3997 118.724 9.97622 118.491 9.75112 118.081C3.37173 106.445 -0.00012207 93.2405 -0.00012207 79.8942C-0.00012207 36.0276 35.6877 0.339844 79.5543 0.339844C123.421 0.339844 159.109 36.0276 159.109 79.8942C159.109 93.2405 155.737 106.446 149.357 118.081C149.029 118.68 148.277 118.899 147.678 118.571C147.08 118.243 146.86 117.491 147.188 116.892C153.369 105.62 156.635 92.8267 156.635 79.8949C156.635 37.3925 122.057 2.81392 79.5543 2.81392C37.0519 2.81327 2.47331 37.3918 2.47331 79.8942C2.47331 92.8254 5.73977 105.619 11.9201 116.892C12.248 117.491 12.0294 118.242 11.4302 118.571C11.2416 118.674 11.0373 118.724 10.8369 118.724Z" fill="#0C8A7B"/>
<path d="M79.5545 33.4826C78.8714 33.4826 78.3177 32.929 78.3177 32.2459V1.7828C78.3177 1.09971 78.8714 0.546082 79.5545 0.546082C80.2376 0.546082 80.7912 1.09971 80.7912 1.7828V32.2453C80.7918 32.929 80.2376 33.4826 79.5545 33.4826Z" fill="#0C8A7B"/>
<path d="M82.3277 41.0941H76.604C75.9209 41.0941 75.3673 40.5405 75.3673 39.8574V35.1077C75.3673 32.8476 77.2058 31.0092 79.4658 31.0092C81.7252 31.0092 83.5644 32.8476 83.5644 35.1077V39.8574C83.565 40.5405 83.0107 41.0941 82.3277 41.0941ZM77.8407 38.6207H81.0909V35.1077C81.0909 34.2119 80.3623 33.4826 79.4658 33.4826C78.5694 33.4826 77.8407 34.2112 77.8407 35.1077V38.6207Z" fill="#0C8A7B"/>
<path d="M100.18 55.6161H58.9285C58.2454 55.6161 57.6918 55.0624 57.6918 54.3793V51.0901C57.5155 47.391 60.6993 44.1291 67.1561 41.4547C71.6814 39.5804 76.1742 38.6826 76.3628 38.6455C76.4415 38.6299 76.5222 38.6221 76.6022 38.6221H81.6773C81.7378 38.585 81.8015 38.5525 81.8685 38.5258C82.294 38.3567 82.7734 38.4361 83.1189 38.7243C84.314 38.9819 88.1211 39.8693 91.9509 41.4547C98.3914 44.122 101.576 47.3722 101.417 51.1174V54.3793C101.417 55.0624 100.864 55.6161 100.18 55.6161ZM60.1645 53.1426H98.9438V51.0901C98.9438 51.0706 98.9444 51.0511 98.9451 51.0316C99.0986 47.7931 94.7288 45.2858 91.0356 43.7531C87.112 42.1241 83.0844 41.2439 82.374 41.0949C82.359 41.0956 82.3434 41.0956 82.3285 41.0956H76.7291C76.0076 41.2465 71.9885 42.1267 68.0727 43.7524C64.3802 45.2858 60.011 47.7924 60.1639 51.0316L60.1645 53.1426Z" fill="#0C8A7B"/>
<path d="M135.97 140.207L130.181 105.515C129.446 101.109 125.671 97.9109 121.203 97.9109H101.99C101.307 97.9109 100.754 98.4645 100.754 99.1476C100.754 99.8307 101.307 100.384 101.99 100.384H115.72L109.065 140.206C108.953 140.88 109.407 141.518 110.081 141.63C110.15 141.642 110.219 141.647 110.286 141.647C110.88 141.647 111.404 141.219 111.505 140.615L118.228 100.384H121.203C124.456 100.384 127.206 102.713 127.741 105.922L133.53 140.614C133.631 141.219 134.155 141.647 134.749 141.647C134.816 141.647 134.885 141.642 134.953 141.63C135.627 141.518 136.082 140.881 135.97 140.207Z" fill="#0C8A7B"/>
<path d="M70.6657 141.649C70.598 141.649 70.5297 141.644 70.4607 141.633C69.7874 141.52 69.332 140.883 69.4446 140.209L72.0032 124.873C72.1158 124.199 72.7533 123.745 73.4266 123.857C74.1 123.969 74.5554 124.606 74.4428 125.28L71.8842 140.616C71.7827 141.221 71.259 141.649 70.6657 141.649Z" fill="#0C8A7B"/>
<path d="M75.9899 109.755C75.9223 109.755 75.854 109.749 75.7844 109.738C75.111 109.625 74.6556 108.988 74.7682 108.314L76.3334 98.9428C76.446 98.2688 77.0816 97.814 77.7569 97.9266C78.4302 98.0391 78.8856 98.676 78.773 99.35L77.2078 108.721C77.1076 109.326 76.5832 109.755 75.9899 109.755Z" fill="#0C8A7B"/>
<path d="M95.1308 141.646C94.5375 141.646 94.0131 141.217 93.9123 140.612L91.4746 125.998C91.3621 125.324 91.8168 124.687 92.4908 124.575C93.1693 124.462 93.8023 124.918 93.9142 125.591L96.3519 140.205C96.4645 140.879 96.0097 141.516 95.3357 141.629C95.2668 141.64 95.1978 141.646 95.1308 141.646Z" fill="#0C8A7B"/>
<path d="M89.8027 109.726C89.2094 109.726 88.685 109.297 88.5842 108.692L88.1223 105.922C87.5875 102.713 84.8376 100.384 81.5842 100.384H62.3718C61.6888 100.384 61.1351 99.83 61.1351 99.1469C61.1351 98.4638 61.6888 97.9102 62.3718 97.9102H81.5842C86.0516 97.9102 89.8274 101.109 90.5619 105.515L91.0238 108.285C91.1364 108.959 90.6816 109.596 90.0076 109.709C89.9387 109.72 89.8697 109.726 89.8027 109.726Z" fill="#0C8A7B"/>
<path d="M133.98 120.123C134.002 120.091 134.025 120.06 134.047 120.028C135.943 117.343 137.061 114.072 137.061 110.543V86.2086C137.061 78.0272 130.406 71.3713 122.224 71.3713H105.908C97.7266 71.3713 91.0701 78.0272 91.0701 86.2086V107.252H76.9659C71.647 107.252 67.0631 111.331 66.8016 116.644C66.5218 122.322 71.0608 127.032 76.6797 127.032H120.573C120.908 127.032 121.24 127.019 121.57 126.999C121.669 126.994 121.768 126.984 121.867 126.977C122.105 126.958 122.341 126.935 122.577 126.906C122.679 126.894 122.78 126.882 122.882 126.867C123.151 126.83 123.419 126.785 123.684 126.734C123.737 126.724 123.79 126.716 123.843 126.705C124.161 126.641 124.477 126.566 124.789 126.484C124.861 126.465 124.932 126.442 125.005 126.423C125.247 126.355 125.487 126.282 125.725 126.204C125.813 126.175 125.899 126.146 125.986 126.116C126.23 126.031 126.472 125.94 126.71 125.843C126.768 125.82 126.827 125.799 126.884 125.775C127.186 125.649 127.485 125.515 127.777 125.373C127.798 125.363 127.818 125.352 127.839 125.342C128.106 125.21 128.368 125.07 128.627 124.925C128.689 124.891 128.75 124.854 128.812 124.819C129.043 124.685 129.272 124.545 129.496 124.4C129.543 124.37 129.59 124.341 129.637 124.31C130.184 123.949 130.707 123.556 131.206 123.134C131.238 123.108 131.269 123.08 131.301 123.053C131.521 122.864 131.736 122.669 131.946 122.469C131.979 122.438 132.011 122.407 132.043 122.376C132.521 121.913 132.972 121.421 133.392 120.903C133.396 120.898 133.399 120.894 133.403 120.889C133.6 120.638 133.793 120.383 133.98 120.123ZM69.2952 117.856C68.8801 113.447 72.3528 109.724 76.6784 109.724H91.9984C92.0973 109.75 92.1988 109.767 92.3061 109.767C92.4128 109.767 92.515 109.75 92.6139 109.724H109.346C110.029 109.724 110.582 109.171 110.582 108.488C110.582 107.805 110.029 107.251 109.346 107.251H93.5435V86.2079C93.5435 79.3907 99.0902 73.8441 105.908 73.8441H122.224C129.041 73.8441 134.588 79.3901 134.588 86.2079V110.543C134.588 115.615 131.88 120.065 127.835 122.525C125.716 123.814 123.229 124.557 120.573 124.557H76.897C73.0359 124.558 69.6575 121.699 69.2952 117.856Z" fill="#0C8A7B"/>
</svg>
