<svg width="32" height="13" viewBox="0 0 32 13" fill="none" xmlns="http://www.w3.org/2000/svg">
<path d="M5.78514 1.67602C5.41407 2.11513 4.82035 2.46147 4.22663 2.41199C4.15241 1.81827 4.44309 1.18744 4.78324 0.797812C5.15432 0.346337 5.8037 0.0247383 6.32939 0C6.39123 0.618459 6.15004 1.22455 5.78514 1.67602ZM6.3232 2.5295C5.46355 2.48002 4.72758 3.01808 4.3194 3.01808C3.90503 3.01808 3.28039 2.55423 2.60008 2.5666C1.71569 2.57897 0.893137 3.07992 0.441663 3.87774C-0.486025 5.47336 0.200464 7.83587 1.09723 9.13463C1.53633 9.77783 2.06202 10.4829 2.7547 10.4581C3.41026 10.4334 3.67002 10.0314 4.46164 10.0314C5.25945 10.0314 5.48828 10.4581 6.18096 10.4458C6.89837 10.4334 7.34984 9.80257 7.78895 9.15937C8.2899 8.42959 8.49399 7.71836 8.50636 7.68126C8.49399 7.66889 7.12102 7.1432 7.10865 5.55994C7.09628 4.23644 8.19095 3.60561 8.24043 3.56851C7.62197 2.65319 6.65717 2.55423 6.3232 2.5295ZM11.2894 0.735966V10.3777H12.7861V7.08135H14.8579C16.7504 7.08135 18.0801 5.78259 18.0801 3.90247C18.0801 2.02236 16.7752 0.735966 14.9074 0.735966H11.2894ZM12.7861 1.99762H14.5116C15.8104 1.99762 16.5525 2.69029 16.5525 3.90866C16.5525 5.12702 15.8104 5.82588 14.5054 5.82588H12.7861V1.99762ZM20.8137 10.452C21.7537 10.452 22.6258 9.97574 23.0216 9.22122H23.0525V10.3777H24.4379V5.5785C24.4379 4.18696 23.3246 3.2902 21.6115 3.2902C20.0221 3.2902 18.847 4.19933 18.8037 5.44862H20.1519C20.2633 4.8549 20.8137 4.46527 21.5682 4.46527C22.4835 4.46527 22.9968 4.89201 22.9968 5.67745V6.20932L21.1291 6.32065C19.3912 6.42578 18.4512 7.13701 18.4512 8.37393C18.4512 9.62322 19.4222 10.452 20.8137 10.452ZM21.2157 9.3078C20.4179 9.3078 19.9107 8.92436 19.9107 8.33682C19.9107 7.73073 20.3993 7.37821 21.3332 7.32255L22.9968 7.21741V7.76166C22.9968 8.66461 22.23 9.3078 21.2157 9.3078ZM26.287 13C27.7466 13 28.4331 12.4434 29.033 10.755L31.6615 3.38297H30.14L28.3774 9.07897H28.3465L26.5839 3.38297H25.0192L27.5549 10.4025L27.4188 10.8292C27.19 11.5528 26.8189 11.8311 26.1572 11.8311C26.0397 11.8311 25.8108 11.8187 25.7181 11.8064V12.9629C25.8046 12.9876 26.1757 13 26.287 13Z" fill="#101817"/>
</svg>
