<svg width="84" height="16" viewBox="0 0 84 16" fill="none" xmlns="http://www.w3.org/2000/svg">
<path d="M7.53601 1.15542C7.70397 0.73719 8.29603 0.73719 8.46399 1.15542L9.95203 4.86097C10.0235 5.03907 10.1907 5.16051 10.3822 5.1735L14.3662 5.44363C14.8159 5.47412 14.9988 6.03721 14.653 6.32619L11.5886 8.88647C11.4413 9.00953 11.3775 9.20603 11.4243 9.39216L12.3985 13.2647C12.5085 13.7017 12.0295 14.0497 11.6478 13.8101L8.26585 11.6869C8.10331 11.5849 7.89669 11.5849 7.73415 11.6869L4.35223 13.8101C3.97052 14.0497 3.49153 13.7017 3.60149 13.2647L4.5757 9.39216C4.62252 9.20603 4.55867 9.00953 4.41139 8.88647L1.34704 6.32619C1.00118 6.03721 1.18414 5.47412 1.6338 5.44363L5.61781 5.1735C5.8093 5.16051 5.97645 5.03907 6.04797 4.86097L7.53601 1.15542Z" fill="#EAC92C"/>
<path d="M24.536 1.15542C24.704 0.73719 25.296 0.73719 25.464 1.15542L26.952 4.86097C27.0235 5.03907 27.1907 5.16051 27.3822 5.1735L31.3662 5.44363C31.8159 5.47412 31.9988 6.03721 31.653 6.32619L28.5886 8.88647C28.4413 9.00953 28.3775 9.20603 28.4243 9.39216L29.3985 13.2647C29.5085 13.7017 29.0295 14.0497 28.6478 13.8101L25.2659 11.6869C25.1033 11.5849 24.8967 11.5849 24.7341 11.6869L21.3522 13.8101C20.9705 14.0497 20.4915 13.7017 20.6015 13.2647L21.5757 9.39216C21.6225 9.20603 21.5587 9.00953 21.4114 8.88647L18.347 6.32619C18.0012 6.03721 18.1841 5.47412 18.6338 5.44363L22.6178 5.1735C22.8093 5.16051 22.9765 5.03907 23.048 4.86097L24.536 1.15542Z" fill="#EAC92C"/>
<path d="M41.536 1.15542C41.704 0.73719 42.296 0.73719 42.464 1.15542L43.952 4.86097C44.0235 5.03907 44.1907 5.16051 44.3822 5.1735L48.3662 5.44363C48.8159 5.47412 48.9988 6.03721 48.653 6.32619L45.5886 8.88647C45.4413 9.00953 45.3775 9.20603 45.4243 9.39216L46.3985 13.2647C46.5085 13.7017 46.0295 14.0497 45.6478 13.8101L42.2659 11.6869C42.1033 11.5849 41.8967 11.5849 41.7341 11.6869L38.3522 13.8101C37.9705 14.0497 37.4915 13.7017 37.6015 13.2647L38.5757 9.39216C38.6225 9.20603 38.5587 9.00953 38.4114 8.88647L35.347 6.32619C35.0012 6.03721 35.1841 5.47412 35.6338 5.44363L39.6178 5.1735C39.8093 5.16051 39.9765 5.03907 40.048 4.86097L41.536 1.15542Z" fill="#EAC92C"/>
<path d="M58.536 1.15542C58.704 0.73719 59.296 0.73719 59.464 1.15542L60.952 4.86097C61.0235 5.03907 61.1907 5.16051 61.3822 5.1735L65.3662 5.44363C65.8159 5.47412 65.9988 6.03721 65.653 6.32619L62.5886 8.88647C62.4413 9.00953 62.3775 9.20603 62.4243 9.39216L63.3985 13.2647C63.5085 13.7017 63.0295 14.0497 62.6478 13.8101L59.2659 11.6869C59.1033 11.5849 58.8967 11.5849 58.7341 11.6869L55.3522 13.8101C54.9705 14.0497 54.4915 13.7017 54.6015 13.2647L55.5757 9.39216C55.6225 9.20603 55.5587 9.00953 55.4114 8.88647L52.347 6.32619C52.0012 6.03721 52.1841 5.47412 52.6338 5.44363L56.6178 5.1735C56.8093 5.16051 56.9765 5.03907 57.048 4.86097L58.536 1.15542Z" fill="#EAC92C"/>
<path d="M75.536 1.15542C75.704 0.73719 76.296 0.73719 76.464 1.15542L77.952 4.86097C78.0235 5.03907 78.1907 5.16051 78.3822 5.1735L82.3662 5.44363C82.8159 5.47412 82.9988 6.03721 82.653 6.32619L79.5886 8.88647C79.4413 9.00953 79.3775 9.20603 79.4243 9.39216L80.3985 13.2647C80.5085 13.7017 80.0295 14.0497 79.6478 13.8101L76.2659 11.6869C76.1033 11.5849 75.8967 11.5849 75.7341 11.6869L72.3522 13.8101C71.9705 14.0497 71.4915 13.7017 71.6015 13.2647L72.5757 9.39216C72.6225 9.20603 72.5587 9.00953 72.4114 8.88647L69.347 6.32619C69.0012 6.03721 69.1841 5.47412 69.6338 5.44363L73.6178 5.1735C73.8093 5.16051 73.9765 5.03907 74.048 4.86097L75.536 1.15542Z" fill="#F0F0F2"/>
<path d="M72.3523 13.8101L75.7659 11.667C75.9116 11.5755 76.0001 11.4156 76.0001 11.2435V1.03474C76.0001 0.814683 75.6965 0.756002 75.6145 0.960212L74.048 4.86096C73.9765 5.03907 73.8094 5.16051 73.6179 5.1735L69.6339 5.44363C69.1842 5.47412 69.0012 6.03721 69.3471 6.32619L72.4114 8.88647C72.5587 9.00953 72.6226 9.20603 72.5758 9.39216L71.6015 13.2647C71.4916 13.7017 71.9706 14.0497 72.3523 13.8101Z" fill="#EAC92C"/>
</svg>
