<svg width="14" height="14" viewBox="0 0 14 14" fill="none" xmlns="http://www.w3.org/2000/svg">
<path d="M6.53601 1.15542C6.70397 0.73719 7.29603 0.73719 7.46399 1.15542L8.95203 4.86097C9.02355 5.03907 9.1907 5.16051 9.38219 5.1735L13.3662 5.44363C13.8159 5.47412 13.9988 6.03721 13.653 6.32619L10.5886 8.88647C10.4413 9.00953 10.3775 9.20603 10.4243 9.39216L11.3985 13.2647C11.5085 13.7017 11.0295 14.0497 10.6478 13.8101L7.26585 11.6869C7.10331 11.5849 6.89669 11.5849 6.73415 11.6869L3.35223 13.8101C2.97052 14.0497 2.49153 13.7017 2.60149 13.2647L3.5757 9.39216C3.62252 9.20603 3.55867 9.00953 3.41139 8.88647L0.347042 6.32619C0.00117683 6.03721 0.184137 5.47412 0.633802 5.44363L4.61781 5.1735C4.8093 5.16051 4.97645 5.03907 5.04797 4.86097L6.53601 1.15542Z" fill="#EAC92C"/>
</svg>
